<svg xmlns="http://www.w3.org/2000/svg" viewBox="0 0 749.11 401.36">
    <defs>
        <style>.cls-1{fill:#90a6bb;}.cls-2,.cls-3{fill:#e4eeed;}.cls-2{stroke:#e4eeed;stroke-miterlimit:10;}.cls-4{fill:#d1dee4;}</style>
    </defs>
    <title>Illustrator_Plan2</title>
    <g id="Layer_3" data-name="Layer 3">
        <polygon class="cls-1" points="0 7.66 2.3 149.36 225.19 150.13 62.81 268.08 142.47 369.19 193.79 399.06 318.64 401.36 319.4 229.79 582.89 230.55 579.83 160.09 749.11 159.32 746.81 65.28 309.45 65.28 307.92 0 0 7.66" />
    </g>
    <g id="Undervisningsrom">
        <rect class="cls-2" x="7.78" y="16.94" width="77.36" height="124.63" />
        <rect class="cls-2" x="147.6" y="16.94" width="112.87" height="51.49" />
        <rect class="cls-2" x="107.41" y="90.16" width="98.83" height="51.41" />
        <rect class="cls-2" x="206.24" y="90.75" width="42.81" height="50.82" />
        <rect class="cls-2" x="282.68" y="90.16" width="66.19" height="51.41" />
        <rect class="cls-2" x="283.32" y="162.55" width="54.45" height="52.09" />
        <rect class="cls-2" x="337.76" y="162.55" width="66.34" height="52.09" />
        <rect class="cls-3" x="446.3" y="162.55" width="55.04" height="52.09" />
        <rect class="cls-3" x="556.89" y="90.16" width="108.21" height="51.49" />
        <rect class="cls-3" x="501.33" y="162.55" width="55.43" height="52.25" />
        <polygon class="cls-3" points="213.19 169.73 240.42 204.83 178.34 229.48 161.96 207.43 213.19 169.73" />
        <polygon class="cls-3" points="148.16 218.07 164.98 239.65 177.66 230.23 161.63 208.9 148.16 218.07" />
        <polygon class="cls-3" points="245.7 238.59 214.46 238.39 214.52 227.36 235.82 219.1 245.88 223.31 245.7 238.59" />
        <polygon class="cls-3" points="257.58 212.86 257.25 240.34 281.6 240.28 281.05 224.16 257.58 212.86" />
        <rect class="cls-3" x="214.46" y="252.93" width="31.09" height="20.88" />
        <rect class="cls-3" x="214.18" y="291.05" width="31.21" height="16.49" />
        <rect class="cls-3" x="214.42" y="308.4" width="31.15" height="23.28" />
        <rect class="cls-3" x="214.57" y="274.25" width="30.83" height="15.78" />
        <rect class="cls-3" x="214.78" y="239.08" width="30.91" height="13.15" />
        <rect class="cls-3" x="257.54" y="241.19" width="22.96" height="15.88" />
        <rect class="cls-3" x="257.66" y="274.1" width="23.55" height="16.3" />
        <rect class="cls-3" x="257.15" y="291.68" width="23.9" height="16.14" />
        <rect class="cls-3" x="257.15" y="308.95" width="23.9" height="15.65" />
        <rect class="cls-3" x="257.54" y="258.4" width="23.81" height="15.25" />
        <polygon class="cls-3" points="147.76 218.71 135.12 228.62 151.02 249.42 164.44 240.07 147.76 218.71" />
        <polygon class="cls-3" points="121.66 238.62 137.87 259.73 150.57 250.09 134.36 228.83 121.66 238.62" />
        <polygon class="cls-3" points="120.65 238.55 108.39 248.34 124.45 269.06 136.76 260.66 120.65 238.55" />
        <polygon class="cls-3" points="107.57 248.77 84.73 266.81 108.26 298.63 127.94 283.38 124.45 269.99 107.57 248.77" />
        <polygon class="cls-3" points="129.03 284.54 108.69 299.71 118.09 312.16 138.48 297.27 129.03 284.54" />
        <polygon class="cls-3" points="139.33 298.43 119.38 313.47 128.05 325.76 148.54 310.86 139.33 298.43" />
        <polygon class="cls-3" points="149.47 312.38 128.82 327.06 137.75 338.63 158.41 324.02 149.47 312.38" />
        <polygon class="cls-3" points="159.46 325.34 138.67 339.5 150.5 355.7 154.1 353.96 168.48 337.76 159.46 325.34" />
        <polygon class="cls-3" points="169.37 338.78 152.2 357.4 155.56 362.64 166.61 368.28 180.78 345.28 169.37 338.78" />
        <polygon class="cls-3" points="181.87 345.57 168.08 369.29 181.58 377.1 195.24 353.67 181.87 345.57" />
        <polygon class="cls-4" points="196.47 354.54 183.17 377.54 196.65 385.35 210.25 362.49 196.47 354.54" />
        <rect class="cls-4" x="86.27" y="16.82" width="21.81" height="51.47" />
        <rect class="cls-4" x="118.4" y="16.94" width="32.31" height="38.07" />
        <rect class="cls-4" x="85.79" y="105.82" width="20.42" height="35.74" />
        <rect class="cls-4" x="261.35" y="16.82" width="21.33" height="48.02" />
        <rect class="cls-4" x="350.26" y="90.42" width="32.42" height="32.42" />
        <rect class="cls-4" x="349.82" y="122.97" width="21.64" height="18.6" />
        <rect class="cls-4" x="383.26" y="90.16" width="21.04" height="39.52" />
        <rect class="cls-4" x="405.17" y="90.16" width="20.72" height="39.59" />
        <rect class="cls-4" x="426.32" y="90.65" width="20.55" height="50.51" />
        <rect class="cls-4" x="448.28" y="90.26" width="21.46" height="39.64" />
        <rect class="cls-4" x="470.97" y="90.16" width="20.25" height="39.81" />
        <rect class="cls-4" x="492.05" y="90.02" width="21.9" height="51.21" />
        <rect class="cls-4" x="514.98" y="90.16" width="41.19" height="31.7" />
        <rect class="cls-4" x="514.98" y="121.86" width="15.29" height="19.49" />
        <rect class="cls-4" x="665.65" y="90.68" width="20.71" height="34.07" />
        <rect class="cls-4" x="687.48" y="90.83" width="22" height="23.41" />
        <rect class="cls-4" x="710.05" y="90.31" width="20.81" height="34.52" />
        <rect class="cls-4" x="697.79" y="125.5" width="32.33" height="17.06" />
        <rect class="cls-1" x="665.65" y="125.62" width="20.7" height="15.54" />
    </g>
</svg>