<?xml version="1.0" encoding="utf-8"?>
<!-- Generator: Adobe Illustrator 23.0.1, SVG Export Plug-In . SVG Version: 6.00 Build 0)  -->
<svg version="1.1" id="Calque_1" xmlns="http://www.w3.org/2000/svg" xmlns:xlink="http://www.w3.org/1999/xlink" x="0px" y="0px"
	 viewBox="0 0 432 432" style="enable-background:new 0 0 432 432;" xml:space="preserve">
<style type="text/css">
	.st0{fill:#AB8056;}
	.st1{fill:#1A1A1A;}
	.st2{fill:#736358;}
	.st3{fill:#C48C10;}
	.st4{fill:#544841;}
	.st5{fill:#E884A9;}
	.st6{fill:#B3B3B2;}
	.st7{fill:#C0282E;}
	.st8{fill:#333333;}
	.st9{fill:#19854B;}
	.st10{fill:#EBC776;}
	.st11{fill:#D5A953;}
	.st12{fill:#E1DFDB;}
	.st13{fill:#D2B155;}
	.st14{fill:#E8973E;}
	.st15{fill:#3A6C51;}
	.st16{fill:#036838;}
	.st17{fill:#4E695A;}
	.st18{fill:#8B3F43;}
	.st19{fill:#476C58;}
	.st20{fill:#A24F4D;}
	.st21{fill:#C5ADA4;}
	.st22{fill:#CCCBCB;}
	.st23{fill:#B79FA7;}
	.st24{fill:#815969;}
	.st25{fill:#A7A7A6;}
	.st26{fill:#D0AD76;}
	.st27{fill:#E8B953;}
	.st28{fill:#C59B6C;}
	.st29{fill:#F29222;}
	.st30{fill:#E6E5E5;}
	.st31{fill:#D2B79A;}
	.st32{fill:#BE8B65;}
	.st33{fill:#81A993;}
	.st34{fill:#9C7684;}
	.st35{fill:#824D61;}
	.st36{fill:#B14044;}
	.st37{fill:#8F5168;}
	.st38{fill:#D88EA9;}
	.st39{fill:#805C5C;}
	.st40{fill:#CCA3A3;}
	.st41{fill:#FFFFFF;}
	.st42{fill:#6A9DC3;}
	.st43{fill:#F49F5A;}
	.st44{fill:#6A3E4D;}
	.st45{fill:#F8AF3C;}
	.st46{fill:#EA5877;}
	.st47{fill:#F1D86A;}
	.st48{fill:#5EBEBD;}
	.st49{fill:#BDCD55;}
	.st50{fill:#A5A4A5;}
	.st51{fill:#B09FA0;}
	.st52{fill:#60AE9F;}
	.st53{fill:#BB8071;}
	.st54{fill:#9E7BB5;}
	.st55{fill:#A57C52;}
	.st56{fill:#E8973E;stroke:#E8973E;stroke-miterlimit:10;}
	.st57{fill:#AD375A;}
	.st58{fill:#7E8C66;}
	.st59{fill:#7C887F;}
	.st60{fill:#472912;}
	.st61{fill:#2B1A0F;}
	.st62{fill:#E52E31;}
	.st63{fill:#CA656A;}
	.st64{fill:#4E4D4D;}
	.st65{fill:#3A6D86;}
	.st66{fill:#1D1D1B;}
	.st67{fill:#0D0D0D;}
	.st68{fill:#EA94AA;}
	.st69{fill:#8DA198;}
	.st70{fill:#C896A9;}
	.st71{fill:#F5C645;}
	.st72{fill:#EFB443;}
	.st73{fill:#E68A44;}
	.st74{fill:#622C6A;}
	.st75{fill:#279352;}
	.st76{fill:#479754;}
	.st77{fill:#8764A2;}
	.st78{fill:#B59471;}
	.st79{fill:#B8D38E;}
	.st80{fill:#5CAF62;}
	.st81{fill:#F5DB56;}
	.st82{fill:#9C9E9F;}
	.st83{fill:#207242;}
	.st84{fill:#404041;}
	.st85{fill:#C1C2C1;}
	.st86{fill:#CBCACA;}
	.st87{fill:#904290;}
	.st88{fill:#129E56;}
	.st89{fill:#F1CC45;}
	.st90{fill:#5C3289;}
	.st91{fill:#2AA658;}
	.st92{fill:#C49A6C;}
	.st93{fill:#F1F1F1;}
	.st94{fill:#754D27;}
	.st95{fill:#8B6239;}
	.st96{fill:#B3B2B2;}
	.st97{fill:#979796;}
	.st98{fill:#C38045;}
	.st99{fill:#0E1014;}
	.st100{fill:#D8AA58;}
	.st101{fill:#0B0C0E;}
	.st102{fill:#6A4694;}
	.st103{fill:#3EA958;}
	.st104{fill:#FAD96F;}
	.st105{fill:#C58489;}
	.st106{fill:#C98C94;}
	.st107{fill:#2C2E30;}
	.st108{fill:#DDAAB1;}
	.st109{fill:#5A9AB5;}
	.st110{fill:#989898;}
	.st111{fill:#469771;}
	.st112{fill:#B59825;}
	.st113{fill:#E96C99;}
	.st114{fill:#BFA490;}
	.st115{fill:#808080;}
	.st116{fill:#80C9CB;}
	.st117{fill:#C9CE66;}
	.st118{fill:#72A6CB;}
	.st119{fill:#ED799D;}
	.st120{fill:#F4AB5E;}
	.st121{fill:#F2902A;}
	.st122{fill:#7FBB48;}
	.st123{fill:#ED7AA9;}
	.st124{fill:#53A2DA;}
	.st125{fill:#07473E;}
	.st126{fill:#960527;}
	.st127{fill:#110A09;}
	.st128{fill:#F15A24;}
	.st129{fill:#9B0808;}
	.st130{fill:#EFEFEF;}
	.st131{fill:#87C1BF;}
	.st132{fill:#E58645;}
	.st133{fill:#4F3928;}
	.st134{fill:#666666;}
	.st135{fill:#BDCCD4;}
	.st136{fill:#A0C1C0;}
</style>
<g>
	<g>
		<g>
			<ellipse class="st96" cx="215.38" cy="333.39" rx="153.21" ry="33.81"/>
			<ellipse class="st97" cx="215.38" cy="332.69" rx="130.06" ry="19.9"/>
		</g>
		<g>
			<path class="st92" d="M323.22,281.84c-9.52-24.57-54.18-43.16-107.84-43.16c-60.6,0-109.72,23.71-109.72,52.97
				c0,1.94,0.21,3.87,0.65,5.76c5.94,26.53,52.5,47.19,109.06,47.19c60.6,0,109.72-23.71,109.72-52.96
				C325.09,288.29,324.45,285.02,323.22,281.84z M215.38,263.42c22.86,0,41.39,3.25,41.39,7.25c0,3.99-18.53,7.24-41.39,7.24
				s-41.39-3.25-41.39-7.24C173.99,266.67,192.52,263.42,215.38,263.42z"/>
			<g>
				<path class="st93" d="M323.22,281.84c-0.04-0.64-0.1-1.29-0.17-1.95c-1.2-9.02-7.39-18.89-22.38-25.92
					c-12.54-5.87-24.65-10.35-37.51-13.38c-2.8-0.66-5.64-1.25-8.52-1.78c-12.54-2.27-25.98-3.23-41.3-2.81
					c-1.91,0.05-3.86,0.13-5.84,0.22c-2.64,0.13-5.35,0.29-8.12,0.5c-20.2,1.5-40.27,6.24-56.79,12.99
					c-4.86,1.98-9.4,4.15-13.55,6.45c-7.77,4.32-14.14,9.13-18.55,14.23c-2.11,2.45-3.78,4.97-4.93,7.52
					c-0.33,0.73-0.62,1.47-0.86,2.21c-2.15,6.32-1.42,12.67,1.62,17.29c3.59,5.46,10.44,8.47,19.63,6.04
					c1.49-0.39,3.03-0.92,4.64-1.61c1.66-0.72,3.28-1.36,4.86-1.93h0.01c18.3-6.8,31.19-5.25,37.89-1.22
					c7.29,4.37,4.86,30.86,21.38,31.1c0.76,0.01,1.5-0.03,2.22-0.13c2.73-0.32,5.14-1.33,7.34-2.77h0.01
					c9.74-6.4,15.13-21.27,24.21-23.03c0.36-0.07,0.74-0.11,1.12-0.11c1.77,0,3.82,0.69,6.07,1.85
					c13.24,6.84,33.5,30.07,45.78,25.65c10.69-3.86,0.77-23.77-2.84-35.57c-1.16-3.75-1.67-6.69-0.68-8.02
					c0.2-0.28,0.49-0.5,0.85-0.63c7.29-2.67,25.51,20.65,35.96,14.09c4.03-2.53,7.42-7.99,8.28-14.57
					C323.24,285.02,323.31,283.45,323.22,281.84z M256.5,271.51c-0.61,0.93-2.23,1.81-4.65,2.59h-0.01
					c-2.8,0.91-6.7,1.71-11.35,2.33c-0.01,0-0.01,0-0.01,0c-3.13,0.42-6.59,0.76-10.32,1.01c-1.93,0.13-3.94,0.23-6,0.31
					c-2.83,0.11-5.76,0.17-8.79,0.17c-1.8,0-3.57-0.02-5.31-0.07c-1.99-0.04-3.94-0.11-5.83-0.19c-10.85-0.53-19.9-1.82-25.2-3.52
					c-0.01,0-0.01,0-0.02,0c-3.21-1.02-5.03-2.21-5.03-3.46c0-0.64,0.48-1.26,1.37-1.85c0.01-0.01,0.01-0.01,0.02-0.01
					c0.03-0.02,0.06-0.04,0.09-0.06c1.71-1.1,4.87-2.1,9.1-2.92c1.14-0.23,2.35-0.44,3.64-0.64c2.56-0.39,5.39-0.72,8.45-0.99
					c2.72-0.24,5.62-0.44,8.65-0.56c1.9-0.09,3.85-0.15,5.85-0.18c1.39-0.03,2.8-0.04,4.23-0.04c1.77,0,3.52,0.02,5.23,0.06
					c2.72,0.06,5.35,0.17,7.86,0.32h0.01c7.17,0.41,13.44,1.17,18.27,2.15c0,0,0.01-0.01,0.02,0c6.23,1.27,10,2.92,10,4.72
					C256.77,270.95,256.67,271.23,256.5,271.51z"/>
				<g>
					<g>
						<g>
							<g>
								<path class="st90" d="M177.67,286.91c1.15,3.65,3.33,6.56,6.38,8.84c1.26,0.94,3.26,0.21,3.99-1.05
									c0.87-1.49,0.22-3.04-1.05-3.99c-1.77-1.32-3.04-3.26-3.7-5.35C182.17,281.79,176.54,283.32,177.67,286.91L177.67,286.91z"
									/>
							</g>
							<g>
								<path class="st90" d="M255.99,257.68c2.57-0.3,4.78-1.38,6.67-3.12c0.79-0.72,0.55-2.14-0.19-2.78
									c-0.88-0.77-1.99-0.53-2.78,0.19c-1.1,1.01-2.55,1.61-4.02,1.78C253.16,254.04,253.46,257.97,255.99,257.68L255.99,257.68z"
									/>
							</g>
						</g>
						<g>
							<g>
								<path class="st89" d="M257.78,309.28c3.64,1.19,7.28,1.11,10.9-0.04c1.5-0.48,2.06-2.53,1.47-3.85
									c-0.7-1.57-2.35-1.95-3.85-1.47c-2.11,0.67-4.43,0.57-6.51-0.11C256.24,302.65,254.2,308.11,257.78,309.28L257.78,309.28z"
									/>
							</g>
							<g>
								<path class="st89" d="M186.96,247.78c1.45-1.3,2.34-2.92,2.76-4.81c0.17-0.78-0.59-1.55-1.32-1.63
									c-0.87-0.09-1.46,0.54-1.63,1.32c-0.24,1.1-0.87,2.09-1.7,2.84C183.65,246.77,185.53,249.06,186.96,247.78L186.96,247.78z"
									/>
							</g>
						</g>
						<g>
							<g>
								<path class="st88" d="M222.07,246.17c2.16,0.71,4.33,0.66,6.49-0.02c0.89-0.28,1.23-1.5,0.88-2.29
									c-0.42-0.94-1.4-1.16-2.29-0.88c-1.25,0.4-2.63,0.34-3.87-0.06C221.15,242.22,219.94,245.47,222.07,246.17L222.07,246.17z"
									/>
							</g>
							<g>
								<path class="st88" d="M122.73,289.78c2.41-2.15,3.89-4.83,4.58-7.97c0.29-1.3-0.97-2.57-2.18-2.7
									c-1.44-0.15-2.42,0.88-2.7,2.18c-0.4,1.82-1.45,3.47-2.83,4.7C117.24,288.09,120.36,291.89,122.73,289.78L122.73,289.78z"/>
							</g>
						</g>
					</g>
					<g>
						<g>
							<g>
								<path class="st90" d="M179.02,274.13c-8.92,1.27-17.34,4.96-25.03,10.02c-6.56,4.32-13.39,9.48-18.54,15.74h-0.01
									c-1.58,0.57-3.2,1.21-4.86,1.93c-1.6,0.69-3.15,1.22-4.64,1.61c5.57-10.21,15.59-18.06,25.1-24.33
									c7.44-4.9,15.67-8.6,24.31-10.29c-0.89,0.58-1.37,1.21-1.37,1.85C173.99,271.92,175.81,273.11,179.02,274.13z"/>
							</g>
							<g>
								<path class="st90" d="M278.63,295.66c-1.48-1.3-3.01-2.54-4.6-3.71c-10.05-7.47-21.69-11.86-33.54-15.52
									c4.66-0.62,8.55-1.42,11.35-2.33h0.01c9.25,3.36,18.14,7.53,26.09,13.55C276.96,288.97,277.47,291.91,278.63,295.66z"/>
							</g>
							<g>
								<path class="st90" d="M213.33,235.99c-0.47,9.17-1.2,18.33-2.18,27.47c-2,0.04-3.95,0.1-5.85,0.18
									c0.98-9.13,1.71-18.27,2.19-27.43C209.47,236.12,211.41,236.04,213.33,235.99z"/>
							</g>
						</g>
						<g>
							<g>
								<path class="st89" d="M204.29,326.87L204.29,326.87c-2.21,1.44-4.62,2.45-7.35,2.77c0.04-0.26,0.13-0.53,0.25-0.81
									c7.44-16.07,7.7-33.79,7.05-51.19c1.9,0.09,3.84,0.16,5.83,0.19C210.64,294.5,210.23,311.22,204.29,326.87z"/>
							</g>
							<g>
								<path class="st89" d="M196.65,264.21c-3.05,0.27-5.89,0.6-8.45,0.99c-9.49-6.12-20.95-8.6-32.31-9.21
									c-8.77-0.47-17.86-0.52-26.85,0.17c4.15-2.3,8.69-4.47,13.55-6.45c5.71-0.02,11.39,0.22,16.9,0.7
									C172.98,251.56,186.28,255.44,196.65,264.21z"/>
							</g>
							<g>
								<path class="st89" d="M323.03,286.53c-9.87-5.52-20.22-10.12-31.38-12.42c-11.39-2.35-23.31-2.79-35.15-2.6
									c0.17-0.27,0.27-0.55,0.27-0.84c0-1.81-3.77-3.45-10-4.72c15.51-0.52,31.36-0.57,46.44,2.54
									c10.53,2.18,20.4,6.35,29.84,11.4c0.08,0.66,0.14,1.31,0.17,1.95C323.31,283.45,323.24,285.02,323.03,286.53z"/>
							</g>
						</g>
						<g>
							<g>
								<path class="st88" d="M263.15,240.58c-4.93,2.84-9.83,5.74-14.66,8.74c-7.04,4.36-14,8.83-20.01,14.48h-0.01
									c-2.52-0.16-5.14-0.26-7.86-0.32c6.65-7.41,14.94-12.96,23.34-18.2c3.53-2.21,7.09-4.36,10.67-6.47
									C257.51,239.33,260.35,239.92,263.15,240.58z"/>
							</g>
							<g>
								<path class="st88" d="M184.56,265.84c-4.23,0.82-7.39,1.82-9.1,2.92c-11.9-3.27-25.55-2.52-37.15-0.76
									c-11.92,1.81-23.46,5.75-33.62,12.12c0.24-0.74,0.53-1.48,0.86-2.21c1.15-2.56,2.82-5.07,4.93-7.52
									c8.79-4.18,18.26-6.91,28.05-8.27C153.32,260.06,170.52,259.61,184.56,265.84z"/>
							</g>
							<g>
								<path class="st88" d="M235.69,305.58c-2.25-1.16-4.31-1.85-6.07-1.85c-1.06-8.8-2.88-17.46-5.45-25.99
									c2.06-0.08,4.06-0.18,6-0.31C232.86,286.65,234.71,296.06,235.69,305.58z"/>
							</g>
						</g>
					</g>
				</g>
			</g>
		</g>
		<g>
			<path class="st88" d="M343.58,193.21c-0.66-6.71-6.25-12.6-13.51-14.47c-4.88-1.26-9.46-0.84-13.77,0.94
				c1.19-0.76,2.4-1.48,3.61-2.2c4.11-2.42,6.49-5.98,7.77-10.5c2.51-8.87,2.07-17.71-0.02-26.57c-0.05-0.23-0.21-0.43-0.38-0.74
				c-8.18,4.41-15.17,9.97-20.26,17.78c-2.77,4.25-3.76,8.7-2.67,13.67c0.22,1,0.41,2.01,0.58,3.01
				c-1.76-4.77-4.98-8.67-10.09-11.41c-7.97-4.27-17.53-2.41-21.78,4.43c-0.1,0.17-1.28,1.87-2.16,5.16
				c-1.82,6.82,0.64,12.61,5.24,17.56c2.63,2.83,5.99,4.38,9.92,4.29c3.1-0.07,5.38-1.62,6.78-4.37c1.37-2.71,1.52-5.46-0.2-8.08
				c-1.72-2.64-5.59-3.42-8.07-1.71c-2.57,1.77-3.03,4.93-1.12,7.74c0.11,0.16,0.19,0.34,0.37,0.67c-1.68-0.51-2.2-1.73-2.5-3.04
				c-0.95-4.13,1.88-8.13,6.19-8.75c4.04-0.58,7.1,1.34,9.68,4.12c2.51,2.7,3.9,5.74,3.94,9.15l-3.13-1.39
				c-1.52-0.68-3.31,0.01-3.99,1.53c-0.68,1.52,0.01,3.31,1.53,3.99l1.77,0.79c-0.78,1.18-1.58,2.38-2.45,3.52
				c-1.56,2.02-3.57,3.1-6.22,2.27c-0.47-0.15-0.93-0.31-1.48-0.49c1.43,3.31,4.4,4.36,9.03,3.41l-22.59,53.52
				c-0.55,1.3-0.8,2.64,0.51,3.19l0.88,0.37c1.31,0.55,2.24-0.59,2.79-1.89l22.46-53.19c1.97,3.63,5.02,5.37,8.02,4.12
				c-3.82-2.66-4.3-3.84-3.25-8.55c0.19-0.87,0.43-1.73,0.68-2.56l2.58,1.15c1.52,0.68,3.31-0.01,3.99-1.53
				c0.68-1.52-0.01-3.31-1.53-3.99l-3.12-1.39c4.65-3.86,12.44-4.38,17.08-0.71c4.31,3.4,4.08,9.79-0.46,12.43
				c-1.2,0.7-2.47,1.14-4.17,0.15c0.59-0.06,0.82-0.08,1.05-0.1c2.36-0.23,3.92-1.51,4.64-3.72c0.72-2.19-0.01-4.31-1.85-5.8
				c-2.39-1.94-5.57-1.86-8.11,0.19c-5.09,4.12-4.05,11.27,2.1,14.49c7.07,3.69,17.64,1.57,22.2-5.1
				C342.93,200.44,343.77,195.12,343.58,193.21z"/>
			<path class="st89" d="M269.42,134.2c-1.81-0.56-3.69-0.79-5.58-0.73c-0.75,0.02-1.73,0.53-1.8,1.36c-0.25,2.8-0.5,5.6-0.75,8.4
				c-1.1-0.66-2.21-1.3-3.22-2.12c-0.75-0.6-2.32-0.14-2.6,0.81c-0.8,2.72-1.14,5.47-1.09,8.31c0.01,0.53,0.58,0.79,1.05,0.75
				c1.03-0.07,3.39-0.47,4.26,0.01c0.59,0.32,0.31,0.55-0.51,1.69c-0.69,0.94-1.3,1.86-2.16,2.67c-3.15,2.93-7.66,3.95-11.86,3.78
				c-7.63-0.31-15.51-4.61-17.65-12.15c1.96,0.29,3.94,0.51,5.89,0.9c0.74,0.15,2.19-0.39,2.14-1.34c-0.19-3.3-0.38-6.6-0.57-9.89
				c-0.05-0.85-1.21-0.89-1.79-0.59c-1.69,0.86-3.53,1.32-5.32,1.91c0.37-4.43,0.75-8.85,1.12-13.28c0.06-0.74-0.94-0.77-1.41-0.71
				c-4.94,0.63-9.88,1.26-14.83,1.89c-0.65,0.08-1.66,0.81-1.39,1.58c1.4,3.98,2.8,7.97,4.2,11.95c-1.64-0.09-3.29-0.11-4.91-0.47
				c-0.92-0.2-2.29,0.55-2.09,1.59c0.64,3.24,1.28,6.48,1.92,9.72c0.13,0.67,1.36,0.52,1.74,0.33c2.01-0.94,4.08-1.67,6.09-2.57
				c0.05,8.34-6.94,14.81-14.88,16.62c-3.98,0.91-8.31,0.7-11.89-1.43c-0.54-0.32-3.38-3.23-4.34-3.06c0.92-0.49,3.79-0.91,4.4-1.03
				c0.72-0.14,1.58-0.76,1.39-1.58c-0.64-2.66-1.61-5.17-3.02-7.52c-0.57-0.95-2.08-0.4-2.61,0.33c-0.76,1.05-1.67,1.94-2.57,2.85
				c-1.03-2.89-2.05-5.77-3.08-8.66c-0.18-0.51-0.93-0.55-1.36-0.45c-2,0.45-3.88,1.23-5.63,2.3c-0.37,0.22-0.89,0.79-0.66,1.28
				c6.49,13.62,12.99,27.23,19.48,40.85l0.95,54.68c0.02,1.04,0.89,1.88,1.93,1.87c1.04-0.02,1.88-0.89,1.87-1.93l-0.96-55.01
				c10.16-5.8,21.55-8.82,33.18-9.77c9.74-0.62,19.4-0.09,28.79,2.72c0.64,0.19,1.94-0.33,2.08-1.06c2.9-14.93,5.8-29.87,8.7-44.8
				C270.19,134.64,269.94,134.36,269.42,134.2z"/>
			<path class="st90" d="M170.67,152.47c-0.46-0.73-1.28-0.77-1.76-0.06c-0.35,0.51-0.63,1.07-0.93,1.61
				c-0.21,0.39-0.4,0.79-0.62,1.17c-0.69,1.18-1.72,1.96-3,2.41c-1.16,0.4-2.35,0.58-3.58,0.5c-1.3-0.08-2.57-0.32-3.84-0.63
				c-1.58-0.38-3.16-0.79-4.75-1.15c-3-0.68-6-0.8-9.04-0.2c-2.76,0.54-5.23,1.64-7.36,3.49c-1.16,1.01-2.17,2.16-3.17,3.32
				c-0.72,0.82-1.43,1.64-2.15,2.46c-0.12,0.13-0.46,0.38-0.49,0.41c-1.65,1.8-12.4,7.51-13,7.68c-1.22,0.36-2.49,0.48-3.75,0.6
				c-1.98,0.2-3.96,0.38-5.93,0.62c-1.71,0.21-3.34,0.74-4.84,1.6c-1.36,0.78-2.55,1.78-3.65,2.9c-1.81,1.83-3.14,3.97-4.2,6.31
				c-0.78,1.72-1.6,3.43-2.43,5.13c-0.58,1.2-1.39,2.21-2.38,3.1c-1.32,1.18-2.82,1.74-4.6,1.52c-0.37-0.05-0.74-0.07-1.11-0.07
				c-0.24,0-0.5,0.05-0.73,0.12c-0.62,0.19-0.95,0.71-0.79,1.35c0.09,0.36,0.26,0.74,0.49,1.03c0.55,0.7,1.12,1.41,1.75,2.04
				c1.37,1.36,2.86,2.6,4.35,3.83c4.67,3.85,10.03,6.14,15.89,7.27l35.15,64.46c0.41,0.75,1.36,1.03,2.11,0.62l0.68-0.37
				c0.75-0.41,1.03-1.36,0.62-2.11l-33.85-62.08c3.59,0.02,7.07-0.81,10.46-2.2c2.16-0.88,4.16-2.05,5.97-3.53
				c2.5-2.04,4.68-4.37,6.28-7.19c0.44-0.78,0.85-1.58,1.32-2.35c0.39-0.65,0.83-1.27,1.29-1.87c0.41-0.54,0.97-0.89,1.61-1.12
				c0.82-0.29,1.66-0.42,2.52-0.42c1.32-0.01,2.65,0,3.97,0.07c4.37,0.21,8.5-0.78,12.45-2.56c1.83-0.83,3.52-1.9,5.15-3.07
				c2.85-2.06,5.17-4.6,6.92-7.65c0.72-1.26,1.42-2.53,2.05-3.83c1.51-3.11,2.35-6.39,2.44-9.86c0.1-3.98-0.24-7.91-0.97-11.82
				C171.11,153.43,170.96,152.92,170.67,152.47z M126.54,189.82c-0.02,0.21-0.03,0.4-0.07,0.6c-0.11,0.62-0.34,1.2-0.7,1.71
				c-1.73,2.4-3.55,4.71-5.91,6.56c-1.62,1.27-3.4,2.25-5.37,2.88c-2.98,0.94-6,1.16-9.08,0.6c-1.28-0.23-2.54-0.52-3.81-0.79
				c-0.02,0-0.04-0.01-0.05-0.02c-0.07-0.02-0.1-0.1-0.07-0.17c0,0,0,0,0,0c1.1-2.31,2.28-4.57,3.71-6.69
				c1.24-1.84,2.68-3.5,4.37-4.94c1.77-1.49,3.83-2.19,6.11-2.33c1.73-0.1,3.41,0.22,5.07,0.67c1,0.27,1.98,0.61,2.97,0.91
				c0.76,0.24,1.53,0.47,2.29,0.71c0.14,0.04,0.28,0.1,0.45,0.15C126.51,189.7,126.55,189.76,126.54,189.82z M162.14,171.73
				c-0.26,0.58-0.55,1.15-0.89,1.68c-1.07,1.63-2.43,3-3.86,4.3c-1.19,1.08-2.45,2.06-3.8,2.92c-1.2,0.76-2.52,1.23-3.89,1.59
				c-2.64,0.7-5.33,0.89-8.04,0.79c-0.84-0.03-1.68-0.09-2.54-0.14c-0.08,0-0.14-0.09-0.11-0.17c0.02-0.05,0.03-0.1,0.05-0.14
				c1.13-2.54,2.36-5.02,3.72-7.44c0.79-1.41,1.73-2.72,2.95-3.81c1.96-1.75,4.23-2.65,6.89-2.49c1.62,0.1,3.21,0.36,4.8,0.61
				c1.6,0.25,3.19,0.49,4.79,0.73c0.04,0.01,0.09,0.02,0.14,0.03c0.06,0.01,0.1,0.07,0.1,0.13
				C162.43,170.82,162.34,171.29,162.14,171.73z"/>
		</g>
	</g>
	<g>
		<g>
			<path class="st96" d="M71.34,84.57c-0.05-3.56,0.07-7.11,0.24-10.66c0.07-1.45,0.14-2.9,0.17-4.36c0.02-1.18,1.01-2.24,2.03-2.15
				c0.83,0.08,1.67,0.02,2.5,0.1c0.29,0.02,0.57,0.05,0.85,0.11c1.41,0.32,1.94,1.14,1.76,2.75c-0.64,5.98-0.78,11.98-0.58,17.99
				c0.08,2.58,0.21,5.16,0.31,7.74c0.02,0.48,0.02,0.97-0.02,1.45c-0.09,1.05-0.7,1.74-1.63,1.76c-1.06,0.03-2.13,0.03-3.19-0.1
				c-1.47-0.17-2.09-0.97-2.29-2.64c-0.13-1.06-0.13-2.13-0.15-3.19C71.33,90.45,71.34,87.51,71.34,84.57z"/>
			<path class="st96" d="M103.91,68.89c0.15,1.02,0.21,2.06,0.26,3.09c0.02,0.42,0.03,0.85,0.07,1.27c0.03,0.34-0.42,0.71-0.93,0.74
				c-0.42,0.03-0.83,0.09-1.24,0.12c-0.14,0.01-0.29,0.02-0.43,0.02c-0.71-0.01-1-0.21-0.97-0.69c0.11-1.77-0.04-3.51-0.35-5.23
				c-0.13-0.74-0.29-1.48-0.43-2.22c-0.03-0.14-0.04-0.28-0.04-0.42c0.01-0.31,0.28-0.54,0.75-0.61c0.53-0.07,1.06-0.14,1.59-0.17
				c0.74-0.04,1.07,0.15,1.23,0.62c0.1,0.3,0.14,0.61,0.19,0.91C103.71,67.19,103.81,68.04,103.91,68.89z"/>
			<path class="st96" d="M85.2,70.29c-0.89-0.09-1.72,0.01-2.55,0.01c-0.32,0-0.63,0.03-0.95,0.02c-0.72-0.03-1.24-0.54-1.27-1.2
				c-0.03-0.65,0.47-1.25,1.16-1.33c0.71-0.08,1.43-0.13,2.15-0.16c3.51-0.13,7.02-0.28,10.53-0.22c0.34,0.01,0.69-0.02,1.02,0.11
				c0.58,0.23,0.91,0.69,0.89,1.29c-0.02,0.59-0.39,1.02-1,1.2c-0.29,0.08-0.57,0.06-0.85,0.01c-0.75-0.13-1.49-0.04-2.24-0.02
				c-0.39,0.01-0.55,0.19-0.6,0.59c-0.34,2.89-0.66,5.78-0.76,8.69c-0.09,2.71,0.02,5.41,0.08,8.11c0.04,1.56,0.12,3.12,0.21,4.68
				c0.09,1.57,0.04,3.13-0.11,4.68c-0.14,1.47-0.69,2.07-2.07,2.34c-0.48,0.09-0.97,0.16-1.45,0.2c-1.37,0.14-2.19-0.41-2.61-1.79
				c-0.3-0.97-0.46-1.98-0.58-3c-0.45-3.58-0.59-7.17-0.41-10.79c0.17-3.57,0.42-7.13,0.94-10.67
				C84.87,72.18,85.04,71.29,85.2,70.29z"/>
			<path class="st96" d="M114.46,99.33c-2.47-0.16-4.44-1.25-5.82-3.39c-0.74-1.15-1.11-2.45-1.44-3.76
				c-0.19-0.76,0.18-1.36,0.8-1.54c0.65-0.19,1.24,0.11,1.55,0.79c0.11,0.24,0.17,0.5,0.26,0.75c0.17,0.5,0.32,1.01,0.51,1.5
				c0.3,0.78,0.75,1.46,1.4,1.98c1.5,1.21,3.12,1.21,4.45-0.22c1.13-1.21,1.43-2.57,0.94-4.14c-0.41-1.29-1.17-2.36-2.06-3.32
				c-0.81-0.87-1.67-1.71-2.53-2.53c-1.14-1.09-2.18-2.26-3.05-3.59c-1.31-2-2.1-4.2-2.02-6.63c0.09-2.68,1.2-4.88,3.3-6.51
				c2.89-2.23,6.77-1.57,8.99,1.48c0.57,0.78,0.98,1.66,1.34,2.56c0.09,0.22,0.15,0.44,0.16,0.68c0.03,0.68-0.28,1.15-0.89,1.34
				c-0.54,0.17-1.06-0.05-1.39-0.6c-0.12-0.2-0.2-0.42-0.29-0.64c-0.24-0.57-0.52-1.11-0.83-1.64c-0.19-0.33-0.44-0.43-0.79-0.28
				c-0.49,0.2-0.93,0.47-1.3,0.84c-1.51,1.49-2.25,4.15-0.99,6.41c0.53,0.95,1.16,1.82,1.81,2.69c1.17,1.57,2.25,3.2,3.05,5.01
				c0.99,2.25,1.47,4.58,0.92,7.04c-0.52,2.31-1.54,4.24-3.79,5.24C116.01,99.16,115.26,99.35,114.46,99.33z"/>
		</g>
		<g>
			<path class="st90" d="M138.72,79c1.13-1.14,2.17-2.37,3.1-3.68c1.2-1.69,2.37-3.4,3.32-5.25c0.13-0.25,0.28-0.51,0.48-0.71
				c0.43-0.45,0.99-0.52,1.5-0.23c0.46,0.27,0.67,0.76,0.57,1.33c-0.05,0.29-0.2,0.54-0.33,0.79c-2.02,3.78-4.53,7.2-7.52,10.27
				c-0.22,0.22-0.48,0.41-0.62,0.73c0.15,0.26,0.43,0.36,0.66,0.51c2.19,1.39,4.49,2.57,6.81,3.72c0.23,0.12,0.47,0.21,0.68,0.36
				c0.57,0.4,0.74,1.02,0.47,1.59c-0.29,0.6-0.94,0.85-1.61,0.62c-0.16-0.06-0.31-0.15-0.47-0.22c-2.3-1.13-4.57-2.31-6.76-3.64
				c-0.09-0.06-0.2-0.1-0.38-0.19c-0.02,0.77,0.06,1.46,0.15,2.16c0.36,3,1.05,5.94,1.39,8.94c0.05,0.43,0.07,0.85-0.05,1.28
				c-0.16,0.6-0.51,1.02-1.07,1.27c-0.82,0.37-1.69,0.57-2.58,0.67c-1.15,0.12-1.84-0.36-2.18-1.5c-0.36-1.21-0.56-2.46-0.77-3.71
				c-0.72-4.3-0.91-8.64-0.68-12.98c0.19-3.53,0.41-7.06,0.93-10.57c0.09-0.63,0.16-1.26,0.25-1.88c0.1-0.67,0.48-1.06,1.13-1.26
				c0.68-0.2,1.31-0.28,2,0.03c0.48,0.21,1.06,0.21,1.6,0.29c1.28,0.21,1.82,1.01,1.51,2.28c-0.48,1.95-1.05,3.89-1.34,5.88
				c-0.14,1.02-0.26,2.04-0.39,3.06C138.59,78.96,138.65,78.98,138.72,79z"/>
			<path class="st90" d="M149.43,84.57c-0.05-3.56,0.07-7.11,0.24-10.66c0.07-1.45,0.14-2.9,0.17-4.36
				c0.02-1.18,1.01-2.24,2.03-2.15c0.83,0.08,1.67,0.02,2.5,0.1c0.29,0.02,0.57,0.05,0.85,0.11c1.41,0.32,1.94,1.14,1.76,2.75
				c-0.64,5.98-0.78,11.98-0.58,17.99c0.08,2.58,0.21,5.16,0.31,7.74c0.02,0.48,0.02,0.97-0.02,1.45c-0.09,1.05-0.7,1.74-1.63,1.76
				c-1.06,0.03-2.13,0.03-3.19-0.1c-1.47-0.17-2.09-0.97-2.29-2.64c-0.13-1.06-0.13-2.13-0.15-3.19
				C149.41,90.45,149.43,87.51,149.43,84.57z"/>
			<path class="st90" d="M161.73,75.29c-0.52,3.71-0.84,7.36-0.66,11.04c0.17,3.6,0.51,7.19,1.45,10.67
				c0.02,0.09,0.03,0.18,0.05,0.27c0.12,0.93-0.26,1.68-0.94,1.85c-0.74,0.19-1.4-0.31-1.6-1.29c-0.56-2.76-1-5.55-1.26-8.37
				c-0.25-2.8-0.31-5.6-0.14-8.39c0.19-3.04,0.5-6.07,1.08-9.05c0.13-0.67,0.2-1.34,0.4-2c0.31-1.01,0.91-1.55,1.9-1.58
				c0.98-0.03,1.95-0.07,2.93-0.06c1.37,0.01,1.99,0.49,2.41,1.92c1.03,3.46,2.01,6.94,2.81,10.48c0.53,2.3,1.27,4.52,2.09,6.71
				c0.04,0.11,0.11,0.21,0.29,0.31c-0.03-0.37-0.06-0.73-0.08-1.1c-0.02-0.37-0.03-0.75-0.06-1.12c-0.28-3.35-0.37-6.71-0.47-10.07
				c-0.06-2.14,0.1-4.29,0.21-6.43c0.01-0.28,0-0.56,0.01-0.84c0.03-0.87,0.63-1.55,1.34-1.53c0.7,0.02,1.22,0.65,1.2,1.53
				c-0.03,1.34-0.11,2.67-0.16,4.01c-0.11,2.55-0.01,5.1,0.09,7.65c0.11,2.61,0.3,5.22,0.44,7.83c0.13,2.3,0.32,4.59,0.35,6.9
				c0.01,0.94-0.04,1.87-0.19,2.79c-0.11,0.72-0.48,1.19-1.11,1.4c-1.13,0.38-2.3,0.57-3.48,0.51c-0.77-0.04-1.34-0.5-1.74-1.2
				c-0.32-0.56-0.54-1.17-0.77-1.77c-2.07-5.48-3.7-11.11-5.19-16.8c-0.32-1.23-0.61-2.46-0.91-3.69
				C161.97,75.68,161.95,75.48,161.73,75.29z"/>
			<path class="st90" d="M186.01,96.11c0.68-0.88,1.01-1.91,1.27-2.96c0.4-1.64,0.56-3.31,0.63-4.99c0.07-1.68,0.07-3.36-0.05-5.04
				c-0.05-0.69-0.08-0.7-0.79-0.63c-0.49,0.05-0.97,0.14-1.46,0.15c-0.83,0.03-1.35-0.36-1.44-1.03c-0.08-0.68,0.33-1.19,1.12-1.37
				c0.93-0.2,1.88-0.28,2.83-0.29c1.25-0.01,1.87,0.56,2.14,1.79c0.16,0.71,0.11,1.42,0.13,2.13c0.09,3.08,0.09,6.15-0.53,9.19
				c-0.25,1.23-0.6,2.43-1.2,3.55c-0.45,0.85-1.04,1.57-1.86,2.09c-1.16,0.73-2.34,0.84-3.59,0.21c-1.5-0.76-2.54-1.94-3.32-3.37
				c-1.12-2.08-1.81-4.3-2.29-6.6c-0.51-2.43-0.77-4.89-0.67-7.38c0.12-2.92,0.6-5.77,1.88-8.44c0.76-1.59,1.74-3.02,3.05-4.2
				c0.99-0.9,2.11-1.57,3.5-1.68c1.42-0.12,2.68,0.27,3.75,1.19c1.37,1.18,2.28,2.62,2.47,4.45c0.02,0.2,0.02,0.4,0,0.6
				c-0.08,0.75-0.62,1.28-1.27,1.26c-0.63-0.02-1.15-0.51-1.18-1.24c-0.04-0.96-0.43-1.76-0.98-2.5c-0.08-0.11-0.15-0.24-0.23-0.37
				c-1.56,0.99-2.57,2.28-3.29,3.8c-0.96,2.03-1.54,4.17-1.71,6.4c-0.38,5.07,0.5,9.91,2.6,14.55
				C185.65,95.63,185.71,95.92,186.01,96.11z"/>
		</g>
		<g>
			<path class="st88" d="M213.22,95.25c0.34-0.34,0.51-0.76,0.68-1.18c0.44-1.06,0.79-2.15,0.94-3.3c0.1-0.75,0.59-1.22,1.22-1.21
				c0.69,0.01,1.26,0.61,1.3,1.36c0.01,0.17,0.01,0.35-0.03,0.51c-0.47,1.96-1.02,3.89-2.21,5.57c-0.49,0.69-1.04,1.3-1.77,1.74
				c-1.44,0.88-2.86,0.69-4.23-0.16c-1.18-0.73-1.99-1.81-2.66-3c-1.12-1.99-1.84-4.14-2.37-6.36c-0.75-3.15-1.15-6.34-0.9-9.58
				c0.21-2.6,0.75-5.12,2.07-7.41c0.89-1.55,2.03-2.86,3.56-3.8c1.51-0.93,3.13-1.41,4.93-1.06c0.9,0.18,1.69,0.56,2.37,1.16
				c1.24,1.1,2.04,2.47,2.45,4.08c0.02,0.08,0.04,0.17,0.05,0.25c0.12,0.76-0.25,1.37-0.92,1.53c-0.6,0.15-1.21-0.21-1.47-0.9
				c-0.16-0.43-0.25-0.89-0.47-1.29c-0.61-1.15-0.54-1.45-1.95-0.49c-1.64,1.12-2.62,2.71-3.18,4.58c-0.6,1.99-0.9,4.02-0.93,6.11
				c-0.04,3.4,0.46,6.69,1.76,9.85c0.32,0.77,0.68,1.52,1.13,2.23C212.75,94.76,212.88,95.06,213.22,95.25z"/>
			<path class="st88" d="M220.16,92.53c-0.09-2.76,0.18-5.5,0.42-8.25c0.28-3.2,0.53-6.41,1.08-9.59c0.27-1.56,0.59-3.12,1.07-4.64
				c0.12-0.39,0.29-0.78,0.48-1.15c0.84-1.59,2.85-1.98,4.39-0.88c0.57,0.41,1,0.92,1.37,1.47c1.08,1.59,1.85,3.28,2.35,5.08
				c0.76,2.67,1.22,5.39,1.72,8.11c0.42,2.31,0.84,4.63,1.13,6.96c0.27,2.18,0.61,4.35,0.79,6.54c0.02,0.23,0.02,0.46,0.01,0.69
				c-0.02,0.9-0.56,1.48-1.47,1.8c-0.48,0.17-0.98,0.3-1.48,0.41c-1.04,0.21-1.92-0.29-2.08-1.24c-0.15-0.88-0.22-1.77-0.33-2.66
				c-0.03-0.25-0.06-0.51-0.09-0.76c-0.04-0.35-0.16-0.5-0.66-0.44c-1.79,0.23-3.59,0.38-5.39,0.56c-0.79,0.08-0.8,0.08-0.8,0.78
				c0,0.92-0.01,1.84,0.01,2.76c0.01,0.51-0.2,0.91-0.71,1.14c-0.72,0.32-1.57-0.06-1.72-0.79c-0.07-0.35-0.09-0.71-0.09-1.07
				C220.16,95.75,220.16,94.14,220.16,92.53z M222.69,92.35c1.99-0.19,3.89-0.38,5.8-0.57c0.59-0.06,0.63-0.08,0.57-0.61
				c-0.12-0.96-0.26-1.92-0.4-2.88c-0.43-2.93-0.86-5.86-1.31-8.8c-0.39-2.58-0.77-5.16-1.41-7.7c-0.13-0.51-0.22-1.04-0.59-1.52
				c-0.29,0.35-0.33,0.74-0.43,1.11c-0.96,3.66-1.37,7.39-1.69,11.13c-0.15,1.83-0.35,3.66-0.49,5.49
				C222.65,89.44,222.64,90.87,222.69,92.35z"/>
			<path class="st88" d="M242.47,79c1.13-1.14,2.17-2.37,3.1-3.68c1.2-1.69,2.37-3.4,3.32-5.25c0.13-0.25,0.28-0.51,0.48-0.71
				c0.43-0.45,0.99-0.52,1.5-0.23c0.46,0.27,0.67,0.76,0.57,1.33c-0.05,0.29-0.2,0.54-0.33,0.79c-2.02,3.78-4.53,7.2-7.52,10.27
				c-0.22,0.22-0.48,0.41-0.62,0.73c0.15,0.26,0.43,0.36,0.66,0.51c2.19,1.39,4.49,2.57,6.81,3.72c0.23,0.12,0.47,0.21,0.68,0.36
				c0.57,0.4,0.74,1.02,0.47,1.59c-0.29,0.6-0.94,0.85-1.61,0.62c-0.16-0.06-0.31-0.15-0.47-0.22c-2.3-1.13-4.57-2.31-6.76-3.64
				c-0.09-0.06-0.2-0.1-0.38-0.19c-0.02,0.77,0.06,1.46,0.15,2.16c0.36,3,1.05,5.94,1.39,8.94c0.05,0.43,0.07,0.85-0.05,1.28
				c-0.16,0.6-0.51,1.02-1.07,1.27c-0.82,0.37-1.69,0.57-2.58,0.67c-1.15,0.12-1.84-0.36-2.18-1.5c-0.36-1.21-0.56-2.46-0.77-3.71
				c-0.72-4.3-0.91-8.64-0.68-12.98c0.19-3.53,0.41-7.06,0.93-10.57c0.09-0.63,0.16-1.26,0.25-1.88c0.1-0.67,0.48-1.06,1.13-1.26
				c0.68-0.2,1.31-0.28,2,0.03c0.48,0.21,1.06,0.21,1.6,0.29c1.28,0.21,1.82,1.01,1.51,2.28c-0.48,1.95-1.05,3.89-1.34,5.88
				c-0.14,1.02-0.26,2.04-0.39,3.06C242.34,78.96,242.4,78.98,242.47,79z"/>
			<path class="st88" d="M253.17,79.6c0.02-2.82,0.11-5.9,0.84-8.93c0.15-0.61,0.34-1.21,0.64-1.78c0.48-0.9,1.23-1.39,2.29-1.52
				c1.96-0.22,3.91-0.03,5.86,0.06c0.2,0.01,0.4,0.07,0.58,0.13c0.56,0.2,0.86,0.67,0.8,1.22c-0.06,0.52-0.48,0.96-1.07,1.02
				c-0.4,0.04-0.8-0.02-1.2-0.04c-0.17-0.01-0.34-0.05-0.51-0.06c-1.07-0.08-1.04-0.08-1.21,0.95c-0.32,1.97-0.63,3.94-0.9,5.92
				c-0.48,3.56-0.64,7.13-0.32,10.71c0.04,0.44,0.07,0.87,0.09,1.31c0.02,0.34,0.17,0.48,0.54,0.46c0.49-0.02,0.98,0,1.47,0
				c0.33,0,0.63,0.08,0.9,0.25c0.45,0.29,0.64,0.8,0.49,1.3c-0.15,0.51-0.68,0.87-1.32,0.86c-0.37-0.01-0.74-0.08-1.12-0.08
				c-0.57,0-0.62,0.06-0.56,0.56c0.15,1.39,0.3,2.77,0.46,4.15c0.06,0.52,0.12,0.58,0.65,0.47c0.62-0.13,1.24-0.17,1.85-0.37
				c0.81-0.27,1.52,0.06,1.74,0.75c0.21,0.64-0.23,1.37-1,1.58c-0.49,0.14-1,0.22-1.52,0.3c-1.44,0.21-2.88,0.51-4.35,0.53
				c-1.45,0.02-1.86-0.21-2.42-1.71c-0.29-0.77-0.35-1.6-0.47-2.41c-0.35-2.27-0.55-4.55-0.77-6.84
				C253.34,85.54,253.28,82.7,253.17,79.6z"/>
		</g>
		<g>
			<path class="st89" d="M283.03,99.33c-2.47-0.16-4.44-1.25-5.82-3.39c-0.74-1.15-1.11-2.45-1.44-3.76
				c-0.19-0.76,0.18-1.36,0.8-1.54c0.65-0.19,1.24,0.11,1.55,0.79c0.11,0.24,0.17,0.5,0.26,0.75c0.17,0.5,0.32,1.01,0.51,1.5
				c0.3,0.78,0.75,1.46,1.4,1.98c1.5,1.21,3.12,1.21,4.45-0.22c1.13-1.21,1.43-2.57,0.94-4.14c-0.41-1.29-1.17-2.36-2.06-3.32
				c-0.81-0.87-1.67-1.71-2.53-2.53c-1.14-1.09-2.18-2.26-3.05-3.59c-1.31-2-2.1-4.2-2.02-6.63c0.09-2.68,1.2-4.88,3.3-6.51
				c2.89-2.23,6.77-1.57,8.99,1.48c0.57,0.78,0.98,1.66,1.34,2.56c0.09,0.22,0.15,0.44,0.16,0.68c0.03,0.68-0.28,1.15-0.89,1.34
				c-0.54,0.17-1.06-0.05-1.39-0.6c-0.12-0.2-0.2-0.42-0.29-0.64c-0.24-0.57-0.52-1.11-0.83-1.64c-0.19-0.33-0.44-0.43-0.79-0.28
				c-0.49,0.2-0.93,0.47-1.3,0.84c-1.51,1.49-2.25,4.15-0.99,6.41c0.53,0.95,1.16,1.82,1.81,2.69c1.17,1.57,2.25,3.2,3.05,5.01
				c0.99,2.25,1.47,4.58,0.92,7.04c-0.52,2.31-1.54,4.24-3.79,5.24C284.58,99.16,283.83,99.35,283.03,99.33z"/>
			<path class="st89" d="M291.28,79.6c0.02-2.82,0.11-5.9,0.84-8.93c0.15-0.61,0.34-1.21,0.64-1.78c0.48-0.9,1.23-1.39,2.29-1.52
				c1.96-0.22,3.91-0.03,5.86,0.06c0.2,0.01,0.4,0.07,0.58,0.13c0.56,0.2,0.86,0.67,0.8,1.22c-0.06,0.52-0.48,0.96-1.07,1.02
				c-0.4,0.04-0.8-0.02-1.2-0.04c-0.17-0.01-0.34-0.05-0.51-0.06c-1.07-0.08-1.04-0.08-1.21,0.95c-0.32,1.97-0.63,3.94-0.9,5.92
				c-0.48,3.56-0.64,7.13-0.32,10.71c0.04,0.44,0.07,0.87,0.09,1.31c0.02,0.34,0.17,0.48,0.54,0.46c0.49-0.02,0.98,0,1.47,0
				c0.33,0,0.63,0.08,0.9,0.25c0.45,0.29,0.64,0.8,0.49,1.3c-0.15,0.51-0.68,0.87-1.32,0.86c-0.37-0.01-0.74-0.08-1.12-0.08
				c-0.57,0-0.62,0.06-0.56,0.56c0.15,1.39,0.3,2.77,0.46,4.15c0.06,0.52,0.12,0.58,0.65,0.47c0.62-0.13,1.24-0.17,1.85-0.37
				c0.81-0.27,1.52,0.06,1.74,0.75c0.21,0.64-0.23,1.37-1,1.58c-0.49,0.14-1,0.22-1.52,0.3c-1.44,0.21-2.88,0.51-4.35,0.53
				c-1.45,0.02-1.86-0.21-2.42-1.71c-0.29-0.77-0.35-1.6-0.47-2.41c-0.35-2.27-0.55-4.55-0.77-6.84
				C291.44,85.54,291.39,82.7,291.28,79.6z"/>
			<path class="st89" d="M303.83,92.53c-0.09-2.76,0.18-5.5,0.42-8.25c0.28-3.2,0.53-6.41,1.08-9.59c0.27-1.56,0.59-3.12,1.07-4.64
				c0.12-0.39,0.29-0.78,0.48-1.15c0.84-1.59,2.85-1.98,4.39-0.88c0.57,0.41,1,0.92,1.37,1.47c1.08,1.59,1.85,3.28,2.35,5.08
				c0.76,2.67,1.22,5.39,1.72,8.11c0.42,2.31,0.84,4.63,1.13,6.96c0.27,2.18,0.61,4.35,0.79,6.54c0.02,0.23,0.02,0.46,0.01,0.69
				c-0.02,0.9-0.56,1.48-1.47,1.8c-0.48,0.17-0.98,0.3-1.48,0.41c-1.04,0.21-1.92-0.29-2.08-1.24c-0.15-0.88-0.22-1.77-0.33-2.66
				c-0.03-0.25-0.06-0.51-0.09-0.76c-0.04-0.35-0.16-0.5-0.66-0.44c-1.79,0.23-3.59,0.38-5.39,0.56c-0.79,0.08-0.8,0.08-0.8,0.78
				c0,0.92-0.01,1.84,0.01,2.76c0.01,0.51-0.2,0.91-0.71,1.14c-0.72,0.32-1.57-0.06-1.72-0.79c-0.07-0.35-0.09-0.71-0.09-1.07
				C303.83,95.75,303.83,94.14,303.83,92.53z M306.36,92.35c1.99-0.19,3.89-0.38,5.8-0.57c0.59-0.06,0.63-0.08,0.57-0.61
				c-0.12-0.96-0.26-1.92-0.4-2.88c-0.43-2.93-0.86-5.86-1.31-8.8c-0.39-2.58-0.77-5.16-1.41-7.7c-0.13-0.51-0.22-1.04-0.59-1.52
				c-0.29,0.35-0.33,0.74-0.43,1.11c-0.96,3.66-1.38,7.39-1.69,11.13c-0.15,1.83-0.35,3.66-0.49,5.49
				C306.32,89.44,306.3,90.87,306.36,92.35z"/>
			<path class="st89" d="M327.45,99.33c-2.47-0.16-4.44-1.25-5.82-3.39c-0.74-1.15-1.11-2.45-1.44-3.76
				c-0.19-0.76,0.18-1.36,0.8-1.54c0.65-0.19,1.24,0.11,1.55,0.79c0.11,0.24,0.17,0.5,0.26,0.75c0.17,0.5,0.32,1.01,0.51,1.5
				c0.3,0.78,0.75,1.46,1.4,1.98c1.5,1.21,3.12,1.21,4.45-0.22c1.13-1.21,1.43-2.57,0.94-4.14c-0.41-1.29-1.17-2.36-2.06-3.32
				c-0.81-0.87-1.67-1.71-2.53-2.53c-1.14-1.09-2.18-2.26-3.05-3.59c-1.31-2-2.1-4.2-2.02-6.63c0.09-2.68,1.2-4.88,3.3-6.51
				c2.89-2.23,6.77-1.57,8.99,1.48c0.57,0.78,0.98,1.66,1.34,2.56c0.09,0.22,0.15,0.44,0.16,0.68c0.03,0.68-0.28,1.15-0.89,1.34
				c-0.54,0.17-1.06-0.05-1.39-0.6c-0.12-0.2-0.2-0.42-0.29-0.64c-0.24-0.57-0.52-1.11-0.83-1.64c-0.19-0.33-0.44-0.43-0.79-0.28
				c-0.49,0.2-0.93,0.47-1.3,0.84c-1.51,1.49-2.25,4.15-0.99,6.41c0.53,0.95,1.16,1.82,1.81,2.69c1.17,1.57,2.25,3.2,3.05,5.01
				c0.99,2.25,1.47,4.58,0.92,7.04c-0.52,2.31-1.54,4.24-3.79,5.24C329,99.16,328.25,99.35,327.45,99.33z"/>
			<path class="st89" d="M335.7,83.31c-0.02-3.71,0.58-6.93,1.81-9.99c2.87-7.1,9.54-7.91,11.86-1.93c1.14,2.95,1.7,6.05,1.96,9.23
				c0.32,3.89,0,7.7-0.89,11.46c-0.31,1.31-0.76,2.56-1.41,3.71c-0.61,1.08-1.41,1.94-2.37,2.62c-2.3,1.63-4.83,0.86-6.38-0.69
				c-0.65-0.65-1.16-1.42-1.61-2.25c-1.46-2.71-2.28-5.67-2.73-8.77C335.76,85.46,335.69,84.21,335.7,83.31z M345.99,70.68
				c-0.8,0.55-2.1,4-2.47,5.42c-1,3.91-1.27,7.9-0.98,11.93c0.18,2.47,0.89,4.77,1.95,6.93c0.59,1.2,0.93,1.24,1.79,0.24
				c0.75-0.88,1.19-1.97,1.52-3.1c0.67-2.31,1.01-4.68,1.08-7.1c0.05-1.73,0.02-3.47-0.16-5.2
				C348.43,76.89,347.38,71.94,345.99,70.68z"/>
			<path class="st89" d="M356.15,75.29c-0.52,3.71-0.84,7.36-0.66,11.04c0.17,3.6,0.51,7.19,1.45,10.67
				c0.02,0.09,0.03,0.18,0.05,0.27c0.12,0.93-0.26,1.68-0.94,1.85c-0.74,0.19-1.4-0.31-1.6-1.29c-0.56-2.76-1-5.55-1.26-8.37
				c-0.25-2.8-0.31-5.6-0.14-8.39c0.19-3.04,0.5-6.07,1.08-9.05c0.13-0.67,0.2-1.34,0.4-2c0.31-1.01,0.91-1.55,1.9-1.58
				c0.98-0.03,1.95-0.07,2.93-0.06c1.37,0.01,1.99,0.49,2.41,1.92c1.03,3.46,2.01,6.94,2.81,10.48c0.53,2.3,1.27,4.52,2.09,6.71
				c0.04,0.11,0.11,0.21,0.29,0.31c-0.03-0.37-0.06-0.73-0.08-1.1c-0.02-0.37-0.03-0.75-0.06-1.12c-0.28-3.35-0.37-6.71-0.47-10.07
				c-0.06-2.14,0.1-4.29,0.21-6.43c0.01-0.28,0-0.56,0.01-0.84c0.03-0.87,0.63-1.55,1.34-1.53c0.7,0.02,1.22,0.65,1.2,1.53
				c-0.03,1.34-0.11,2.67-0.16,4.01c-0.11,2.55-0.01,5.1,0.09,7.65c0.11,2.61,0.3,5.22,0.44,7.83c0.13,2.3,0.32,4.59,0.35,6.9
				c0.01,0.94-0.04,1.87-0.19,2.79c-0.11,0.72-0.48,1.19-1.11,1.4c-1.13,0.38-2.3,0.57-3.48,0.51c-0.77-0.04-1.34-0.5-1.74-1.2
				c-0.32-0.56-0.54-1.17-0.77-1.77c-2.07-5.48-3.7-11.11-5.19-16.8c-0.32-1.23-0.61-2.46-0.91-3.69
				C356.39,75.68,356.37,75.48,356.15,75.29z"/>
		</g>
	</g>
</g>
</svg>
