<?xml version="1.0" encoding="utf-8"?>

<svg version="1.1" id="marked_x5F_rooms">
<style type="text/css">
	.st0{fill:none;}
	.st1{fill:#E0E0E0;}
	.st2{fill:#9BBABC;}
	.st3{fill:#3BAFA2;}
</style>
<switch>

	<g>
		<g id="campus_x5F_outline">
			<path class="st0" d="M435.6,314.5"/>
			<polygon class="st1" points="3.6,102.3 297,102.3 297,175.2 567.7,175.2 567.7,315.1 297,315.1 297,411.9 403.6,444.8 
				403.6,601.9 157.3,460.6 76.1,352.1 233.5,241 3.6,241 			"/>
		</g>
		<g id="non_x5F_bookable">
			<polygon class="st2" points="118.3,182.9 118.3,197.4 110.8,197.4 110.8,233.7 208.5,233.7 208.5,182.9 			"/>
			<rect x="11" y="109.1" class="st2" width="76.9" height="124.5"/>
			<polyline class="st2" points="150.9,160.6 150.9,147.6 155.1,147.6 155.1,109.1 263.4,109.1 263.4,160.6 			"/>
			<path class="st2" d="M209.6,182.9"/>
			<rect x="209.6" y="182.9" class="st2" width="43.2" height="50.8"/>
			<polygon class="st2" points="264.5,109.1 264.5,160.6 276.9,160.6 276.9,157.2 285,157.2 285,109.1 			"/>
			<polyline class="st2" points="287.4,182.9 351.9,182.9 351.9,233.7 296.2,233.7 296.2,228.1 287.4,228.1 			"/>
			<rect x="504.9" y="255.2" class="st2" width="54.7" height="52.3"/>
			<path class="st2" d="M503.9,255.2"/>
			<polygon class="st2" points="450,255.2 503.9,255.2 503.9,307.5 450,307.5 			"/>
			<polyline class="st2" points="406.7,255.2 406.7,307.5 341.7,307.5 341.7,255.2 			"/>
			<rect x="287.4" y="255.2" class="st2" width="53.6" height="52.3"/>
			<polygon class="st2" points="113.1,341.4 126,331.9 140.7,351.7 127.8,361.2 			"/>
			<polygon class="st2" points="112.4,342 89.8,358.7 112.6,389.4 131.1,375.6 127.2,361.7 			"/>
			<polygon class="st2" points="141.2,351.2 154.1,341.6 139.4,321.9 126.5,331.5 			"/>
			<polygon class="st2" points="140,321.4 154.7,341.2 167.6,331.6 152.9,311.8 			"/>
			<polygon class="st2" points="168.2,331.1 153.5,311.4 166.4,301.8 181.1,321.6 			"/>
			<polygon class="st2" points="181.7,321.1 220.1,305.9 217.3,299.1 235.1,286.4 217.5,262.7 167,301.4 			"/>
			<polygon class="st2" points="218.3,320.3 218.3,330.5 248.5,330.5 248.5,316.1 238.9,312.1 			"/>
			<rect x="218.4" y="331.6" class="st2" width="29.9" height="12.6"/>
			<rect x="218.3" y="345.3" class="st2" width="30.4" height="20.5"/>
			<rect x="218.3" y="366.8" class="st2" width="30.4" height="15.8"/>
			<rect x="218.3" y="383.6" class="st2" width="30.4" height="15.8"/>
			<rect x="218.3" y="400.3" class="st2" width="30.4" height="23.2"/>
			<polygon class="st2" points="203,362.1 203,381.5 170.6,381.5 170.6,374.1 186.8,362.1 			"/>
			<rect x="171" y="382.6" class="st2" width="15.6" height="18.2"/>
			<rect x="189.1" y="382.2" class="st2" width="13.9" height="8.7"/>
			<rect x="189.1" y="391.6" class="st2" width="13.9" height="9.6"/>
			<polygon class="st2" points="203,401.9 185.8,401.9 185.8,418.5 203,423.6 			"/>
			<polygon class="st2" points="184,401.9 184,418 176.5,415.7 170.6,407.9 170.6,401.9 			"/>
			<polygon class="st2" points="261.1,305.3 263.2,306.3 262.9,307 282.6,316.1 283.8,317.1 283.8,332.4 261.1,332.4 			"/>
			<rect x="261.1" y="333.1" class="st2" width="22.7" height="16.1"/>
			<rect x="261.1" y="349.9" class="st2" width="22.7" height="16.1"/>
			<polygon class="st2" points="261.1,366.7 261.1,382.8 283.8,382.8 283.8,366.8 			"/>
			<polygon class="st2" points="261.1,383.5 261.1,399.6 283.8,399.6 283.8,383.6 			"/>
			<polygon class="st2" points="261.1,400.3 261.1,416.6 282.8,416.6 283.8,415.9 283.8,400.3 			"/>
			<polygon class="st2" points="131.8,376.4 141.3,389.2 122.7,403 113.1,390.2 			"/>
			<polygon class="st2" points="151.3,402.7 141.7,389.8 123.1,403.6 132.7,416.5 			"/>
			
				<rect x="135.6" y="408.6" transform="matrix(0.8022 -0.597 0.597 0.8022 -219.5935 170.2994)" class="st2" width="23.3" height="16.1"/>
			<polygon class="st2" points="171.3,429.6 171.2,429.3 161.8,416.7 143.2,430.6 155.5,447.1 157,445.9 			"/>
			<polygon class="st2" points="171.9,430.3 172.6,431.3 183.7,437.7 171.2,459.3 159.6,452.6 156,447.8 157.6,446.6 			"/>
			<polygon class="st2" points="198.2,446 184.3,438 171.8,459.7 185.8,467.7 			"/>
			
				<rect x="187.1" y="453.2" transform="matrix(0.4988 -0.8667 0.8667 0.4988 -299.7323 404.1624)" class="st2" width="25" height="16"/>
			<polygon class="st2" points="213.4,454.8 200.9,476.5 214.9,484.5 227.3,462.8 			"/>
			<polygon class="st2" points="241.9,471.2 228,463.2 215.5,484.8 229.4,492.9 			"/>
			<polygon class="st2" points="256.4,479.6 242.5,471.6 230,493.2 243.9,501.2 			"/>
			<polygon class="st2" points="271,488 257.1,480 244.6,501.6 258.5,509.6 			"/>
			<polygon class="st2" points="285.5,496.4 271.6,488.3 259.1,510 273.1,518 			"/>
			<polygon class="st2" points="286.2,496.7 298.5,503.9 300.3,504.4 287.6,526.4 273.7,518.4 			"/>
			<polygon class="st2" points="301,504.6 343.4,517.2 325.5,548.3 288.2,526.8 			"/>
			<polygon class="st2" points="344.2,517.4 326.2,548.6 360.3,568.3 372.9,525.9 			"/>
			<polygon class="st2" points="373.6,526.1 361,568.7 393,587.1 393,531.9 			"/>
			<polygon class="st2" points="302.6,485.2 309.7,461.3 291.3,455.8 284.2,479.8 			"/>
			<polygon class="st2" points="310.6,461.6 303.5,485.5 321.9,491.1 329,467 			"/>
			<polygon class="st2" points="370.7,466.4 351.8,460.8 358.4,438.4 394.1,449 			"/>
			<polygon class="st2" points="351.1,460.6 335.7,456.1 342.4,433.7 357.7,438.2 			"/>
			<polygon class="st2" points="319.6,451.3 335,455.9 341.7,433.5 326.3,428.9 			"/>
			<polygon class="st2" points="303.5,446.5 318.9,451.1 325.6,428.7 310.2,424 			"/>
			<polygon class="st2" points="287.4,441.8 302.8,446.3 309.4,423.8 294.1,419.3 			"/>
			<polygon class="st2" points="549,234.2 549.1,214.5 533.7,214.4 533.7,234.2 			"/>
		</g>
		<g id="bookable">
			<polygon class="st3" points="353,233.6 374.7,233.6 374.8,222 384.8,222 384.9,182.9 353,182.9 			"/>
			<polygon class="st3" points="385.9,222 406.7,222.1 406.7,182.9 385.9,182.9 			"/>
			<rect x="407.8" y="182.9" class="st3" width="20.8" height="39.2"/>
			<rect x="429.7" y="182.9" class="st3" width="20.8" height="50.9"/>
			<polygon class="st3" points="451.6,222.2 472.4,222.3 472.4,183 451.6,183 			"/>
			<polygon class="st3" points="473.5,222.3 494.3,222.4 494.3,183.1 473.5,183.1 			"/>
			<rect x="495.4" y="182.9" class="st3" width="20.8" height="51.2"/>
			<polygon id="C213" class="st3" points="517.3,234.1 532.6,234.2 532.7,213.4 549.1,213.5 549.1,182.9 517.3,182.9 			"/>
			<polygon class="st3" points="89.1,160.5 110,160.5 110,109.1 89.1,109.4 			"/>
			<polygon class="st3" points="122.1,146.8 153.9,146.9 153.9,109.1 122.1,109.1 			"/>
			<polygon class="st3" points="89.1,198.1 89,232.5 110,232.5 110,198.1 			"/>
		</g>
	</g>
</switch>

</svg>
